<svg width="640" height="640" viewBox="0 0 640 640" fill="none" xmlns="http://www.w3.org/2000/svg">
<path d="M349.1 114.7C343.9 103.3 332.5 96 320 96C307.5 96 296.1 103.3 290.9 114.7L123.5 480H112C94.3 480 80 494.3 80 512C80 529.7 94.3 544 112 544H200C217.7 544 232 529.7 232 512C232 494.3 217.7 480 200 480H193.9L215.9 432H424.2L446.2 480H440.1C422.4 480 408.1 494.3 408.1 512C408.1 529.7 422.4 544 440.1 544H528.1C545.8 544 560.1 529.7 560.1 512C560.1 494.3 545.8 480 528.1 480H516.6L349.2 114.7H349.1ZM394.8 368H245.2L320 204.8L394.8 368Z" fill="black"/>
<rect width="640" height="68" rx="30" fill="black"/>
</svg>
